<svg id="Layer_1" data-name="Layer 1" xmlns="http://www.w3.org/2000/svg" viewBox="0 0 205 206"><defs><style>.cls-1{fill:#fff;stroke:#ffce54;stroke-miterlimit:10;stroke-width:5px;}</style></defs><title>Artboard 29</title><path class="cls-1" d="M193.62,134.09q-.72,2.27-1.56,4.49"/><path class="cls-1" d="M196.39,88.44,60.07,187.62A92.73,92.73,0,0,0,74.42,194L198,104.06A93.62,93.62,0,0,0,196.39,88.44Z"/><path class="cls-1" d="M162.51,32.54,17.3,138.19a92.79,92.79,0,0,0,6.22,13.38l149.81-109A93.8,93.8,0,0,0,162.51,32.54Z"/><path class="cls-1" d="M115.41,13.11,13.31,87.39a93.68,93.68,0,0,0-1.81,18.36c0,1.39,0,2.77.1,4.14L137.38,18.37A92.67,92.67,0,0,0,115.41,13.11Z"/><path class="cls-1" d="M178.22,163.19l-41.5,30.19A93.47,93.47,0,0,0,178.22,163.19Z"/><path class="cls-1" d="M192.06,138.58,109.15,198.9a92.94,92.94,0,0,0,24.66-4.52l46.29-33.67A93,93,0,0,0,192.06,138.58Z"/><path class="cls-1" d="M185.65,59.33,35.7,168.43a93.79,93.79,0,0,0,12.21,11.25L192.6,74.41A92.8,92.8,0,0,0,185.65,59.33Z"/><path class="cls-1" d="M197.6,114.41,84.39,196.77a93.55,93.55,0,0,0,20,2.23l89.22-64.91A92.81,92.81,0,0,0,197.6,114.41Z"/><path class="cls-1" d="M104.75,12.5A93.28,93.28,0,0,0,13.31,87.39L115.41,13.11A94.21,94.21,0,0,0,104.75,12.5Z"/></svg>