<svg id="Layer_1" data-name="Layer 1" xmlns="http://www.w3.org/2000/svg" xmlns:xlink="http://www.w3.org/1999/xlink" viewBox="0 0 205 206"><defs><style>.cls-1{fill:url(#linear-gradient);}.cls-2{fill:url(#linear-gradient-2);}.cls-3{fill:url(#linear-gradient-3);}.cls-4{fill:url(#linear-gradient-4);}.cls-5{fill:url(#linear-gradient-5);}.cls-6{fill:url(#linear-gradient-6);}.cls-7{fill:url(#linear-gradient-7);}.cls-8{fill:url(#linear-gradient-8);}.cls-9{fill:url(#linear-gradient-9);}.cls-10{fill:url(#linear-gradient-10);}.cls-11{fill:url(#linear-gradient-11);}.cls-12{fill:url(#linear-gradient-12);}.cls-13{fill:url(#linear-gradient-13);}.cls-14{fill:url(#linear-gradient-14);}.cls-15{fill:url(#linear-gradient-15);}.cls-16{fill:url(#linear-gradient-16);}.cls-17{fill:url(#linear-gradient-17);}.cls-18{fill:url(#linear-gradient-18);}.cls-19{fill:url(#linear-gradient-19);}.cls-20{fill:url(#linear-gradient-20);}.cls-21{fill:url(#linear-gradient-21);}.cls-22{fill:url(#linear-gradient-22);}.cls-23{fill:url(#linear-gradient-23);}.cls-24{fill:url(#linear-gradient-24);}.cls-25{fill:url(#linear-gradient-25);}.cls-26{fill:url(#linear-gradient-26);}.cls-27{fill:url(#linear-gradient-27);}.cls-28{fill:url(#linear-gradient-28);}.cls-29{fill:url(#linear-gradient-29);}.cls-30{fill:url(#linear-gradient-30);}.cls-31{fill:url(#linear-gradient-31);}.cls-32{fill:url(#linear-gradient-32);}.cls-33{fill:url(#linear-gradient-33);}.cls-34{fill:url(#linear-gradient-34);}.cls-35{fill:url(#linear-gradient-35);}.cls-36{fill:url(#linear-gradient-36);}.cls-37{fill:url(#linear-gradient-37);}.cls-38{fill:url(#linear-gradient-38);}.cls-39{fill:url(#linear-gradient-39);}.cls-40{fill:url(#linear-gradient-40);}.cls-41{fill:url(#linear-gradient-41);}.cls-42{fill:url(#linear-gradient-42);}.cls-43{fill:url(#linear-gradient-43);}.cls-44{fill:url(#linear-gradient-44);}.cls-45{fill:url(#linear-gradient-45);}.cls-46{fill:url(#linear-gradient-46);}.cls-47{fill:url(#linear-gradient-47);}.cls-48{fill:url(#linear-gradient-48);}.cls-49{fill:url(#linear-gradient-49);}.cls-50{fill:url(#linear-gradient-50);}.cls-51{fill:url(#linear-gradient-51);}.cls-52{fill:url(#linear-gradient-52);}.cls-53{fill:url(#linear-gradient-53);}.cls-54{fill:url(#linear-gradient-54);}.cls-55{fill:url(#linear-gradient-55);}.cls-56{fill:url(#linear-gradient-56);}.cls-57{fill:url(#linear-gradient-57);}</style><linearGradient id="linear-gradient" x1="41.78" y1="28.56" x2="165.2" y2="181.6" gradientUnits="userSpaceOnUse"><stop offset="0" stop-color="red"/><stop offset="0.16" stop-color="#ff0"/><stop offset="0.32" stop-color="#00c400"/><stop offset="0.5" stop-color="aqua"/><stop offset="0.66" stop-color="blue"/><stop offset="0.8" stop-color="#ff0085"/><stop offset="1" stop-color="red"/></linearGradient><linearGradient id="linear-gradient-2" x1="58.47" y1="15.11" x2="181.88" y2="168.14" xlink:href="#linear-gradient"/><linearGradient id="linear-gradient-3" x1="74.49" y1="2.19" x2="197.9" y2="155.22" xlink:href="#linear-gradient"/><linearGradient id="linear-gradient-4" x1="34.2" y1="34.68" x2="157.61" y2="187.71" xlink:href="#linear-gradient"/><linearGradient id="linear-gradient-5" x1="48.94" y1="22.79" x2="172.36" y2="175.82" xlink:href="#linear-gradient"/><linearGradient id="linear-gradient-6" x1="64.11" y1="10.56" x2="187.53" y2="163.59" xlink:href="#linear-gradient"/><linearGradient id="linear-gradient-7" x1="10.85" y1="53.51" x2="134.26" y2="206.55" xlink:href="#linear-gradient"/><linearGradient id="linear-gradient-8" x1="22.69" y1="43.96" x2="146.1" y2="197" xlink:href="#linear-gradient"/><linearGradient id="linear-gradient-9" x1="37.43" y1="32.07" x2="160.85" y2="185.11" xlink:href="#linear-gradient"/><linearGradient id="linear-gradient-10" x1="52.6" y1="19.84" x2="176.01" y2="172.88" xlink:href="#linear-gradient"/><linearGradient id="linear-gradient-11" x1="-2.18" y1="64.01" x2="121.24" y2="217.05" xlink:href="#linear-gradient"/><linearGradient id="linear-gradient-12" x1="10.98" y1="53.4" x2="134.4" y2="206.44" xlink:href="#linear-gradient"/><linearGradient id="linear-gradient-13" x1="25.73" y1="41.51" x2="149.14" y2="194.55" xlink:href="#linear-gradient"/><linearGradient id="linear-gradient-14" x1="40.9" y1="29.28" x2="164.31" y2="182.31" xlink:href="#linear-gradient"/><linearGradient id="linear-gradient-15" x1="88.58" y1="-9.18" x2="212" y2="143.86" xlink:href="#linear-gradient"/><linearGradient id="linear-gradient-16" x1="100.64" y1="-18.9" x2="224.05" y2="134.14" xlink:href="#linear-gradient"/><linearGradient id="linear-gradient-17" x1="78.88" y1="-1.35" x2="202.29" y2="151.68" xlink:href="#linear-gradient"/><linearGradient id="linear-gradient-18" x1="93.41" y1="-13.07" x2="216.83" y2="139.96" xlink:href="#linear-gradient"/><linearGradient id="linear-gradient-19" x1="104.17" y1="-21.75" x2="227.59" y2="131.29" xlink:href="#linear-gradient"/><linearGradient id="linear-gradient-20" x1="67.37" y1="7.93" x2="190.78" y2="160.97" xlink:href="#linear-gradient"/><linearGradient id="linear-gradient-21" x1="81.9" y1="-3.79" x2="205.31" y2="149.25" xlink:href="#linear-gradient"/><linearGradient id="linear-gradient-22" x1="96.64" y1="-15.68" x2="220.06" y2="137.35" xlink:href="#linear-gradient"/><linearGradient id="linear-gradient-23" x1="105.74" y1="-23.01" x2="229.15" y2="130.02" xlink:href="#linear-gradient"/><linearGradient id="linear-gradient-24" x1="55.66" y1="17.37" x2="179.08" y2="170.4" xlink:href="#linear-gradient"/><linearGradient id="linear-gradient-25" x1="70.2" y1="5.65" x2="193.61" y2="158.68" xlink:href="#linear-gradient"/><linearGradient id="linear-gradient-26" x1="84.94" y1="-6.24" x2="208.36" y2="146.79" xlink:href="#linear-gradient"/><linearGradient id="linear-gradient-27" x1="97.26" y1="-16.18" x2="220.67" y2="136.86" xlink:href="#linear-gradient"/><linearGradient id="linear-gradient-28" x1="-13.63" y1="73.25" x2="109.78" y2="226.29" xlink:href="#linear-gradient"/><linearGradient id="linear-gradient-29" x1="-1.38" y1="63.37" x2="122.04" y2="216.4" xlink:href="#linear-gradient"/><linearGradient id="linear-gradient-30" x1="13.37" y1="51.48" x2="136.78" y2="204.51" xlink:href="#linear-gradient"/><linearGradient id="linear-gradient-31" x1="28.54" y1="39.25" x2="151.95" y2="192.28" xlink:href="#linear-gradient"/><linearGradient id="linear-gradient-32" x1="-22.52" y1="80.42" x2="100.9" y2="233.45" xlink:href="#linear-gradient"/><linearGradient id="linear-gradient-33" x1="-13.08" y1="72.81" x2="110.34" y2="225.84" xlink:href="#linear-gradient"/><linearGradient id="linear-gradient-34" x1="1.67" y1="60.91" x2="125.08" y2="213.95" xlink:href="#linear-gradient"/><linearGradient id="linear-gradient-35" x1="16.83" y1="48.68" x2="140.25" y2="201.72" xlink:href="#linear-gradient"/><linearGradient id="linear-gradient-36" x1="-28.56" y1="85.29" x2="94.85" y2="238.33" xlink:href="#linear-gradient"/><linearGradient id="linear-gradient-37" x1="-21.48" y1="79.58" x2="101.94" y2="232.61" xlink:href="#linear-gradient"/><linearGradient id="linear-gradient-38" x1="-9.85" y1="70.2" x2="113.57" y2="223.23" xlink:href="#linear-gradient"/><linearGradient id="linear-gradient-39" x1="5.32" y1="57.97" x2="128.74" y2="211" xlink:href="#linear-gradient"/><linearGradient id="linear-gradient-40" x1="-26.22" y1="83.4" x2="97.2" y2="236.44" xlink:href="#linear-gradient"/><linearGradient id="linear-gradient-41" x1="-17.88" y1="76.68" x2="105.53" y2="229.72" xlink:href="#linear-gradient"/><linearGradient id="linear-gradient-42" x1="-5.34" y1="66.57" x2="118.07" y2="219.6" xlink:href="#linear-gradient"/><linearGradient id="linear-gradient-43" x1="43.3" y1="27.34" x2="166.72" y2="180.37" xlink:href="#linear-gradient"/><linearGradient id="linear-gradient-44" x1="57.84" y1="15.62" x2="181.25" y2="168.65" xlink:href="#linear-gradient"/><linearGradient id="linear-gradient-45" x1="72.58" y1="3.72" x2="196" y2="156.76" xlink:href="#linear-gradient"/><linearGradient id="linear-gradient-46" x1="86.11" y1="-7.19" x2="209.53" y2="145.85" xlink:href="#linear-gradient"/><linearGradient id="linear-gradient-47" x1="31.6" y1="36.77" x2="155.02" y2="189.81" xlink:href="#linear-gradient"/><linearGradient id="linear-gradient-48" x1="46.14" y1="25.05" x2="169.55" y2="178.09" xlink:href="#linear-gradient"/><linearGradient id="linear-gradient-49" x1="60.88" y1="13.16" x2="184.3" y2="166.2" xlink:href="#linear-gradient"/><linearGradient id="linear-gradient-50" x1="73.4" y1="3.07" x2="196.82" y2="156.1" xlink:href="#linear-gradient"/><linearGradient id="linear-gradient-51" x1="20.09" y1="46.06" x2="143.5" y2="199.09" xlink:href="#linear-gradient"/><linearGradient id="linear-gradient-52" x1="34.62" y1="34.34" x2="158.04" y2="187.37" xlink:href="#linear-gradient"/><linearGradient id="linear-gradient-53" x1="49.37" y1="22.45" x2="172.78" y2="175.48" xlink:href="#linear-gradient"/><linearGradient id="linear-gradient-54" x1="63.34" y1="11.18" x2="186.75" y2="164.21" xlink:href="#linear-gradient"/><linearGradient id="linear-gradient-55" x1="8.82" y1="55.15" x2="132.23" y2="208.18" xlink:href="#linear-gradient"/><linearGradient id="linear-gradient-56" x1="24.37" y1="42.6" x2="147.79" y2="195.64" xlink:href="#linear-gradient"/><linearGradient id="linear-gradient-57" x1="36.86" y1="32.54" x2="160.27" y2="185.57" xlink:href="#linear-gradient"/></defs><title>Artboard 6</title><path class="cls-1" d="M153.77,57.52h19.7v19.7h-19.7Zm0,23.95h19.7v19.7h-19.7ZM153,105.8h19.7v19.7H153Zm0,23.95h19.7v19.7H153ZM129.44,34h19.7v19.7h-19.7Zm0,23.56h19.7v19.7h-19.7Zm0,23.95h19.7v19.7h-19.7Zm-.77,24.33h19.7v19.7h-19.7Zm0,23.95h19.7v19.7h-19.7Zm0,23.56h19.7V173h-19.7ZM105.29,33.76H125v19.7h-19.7Zm0,23.56H125V77h-19.7Zm0,23.95H125V101h-19.7Zm-.77,24.33h19.7v19.7h-19.7Zm0,23.95h19.7v19.7h-19.7Zm0,23.56h19.7v19.7h-19.7Zm-53.88-3.67H30.94v-19.7h19.7Zm0-23.95H30.94V105.8h19.7Zm.77-24.33H31.71V81.47h19.7Zm0-23.95H31.71V57.52h19.7ZM75,173H55.27v-19.7H75Zm0-23.56H55.27v-19.7H75Zm0-23.95H55.27V105.8H75Zm.77-24.33H56V81.47h19.7Zm0-23.95H56V57.52h19.7Zm0-23.56H56V34h19.7Zm23.95,119H80v-19.7h19.7Zm0-23.56H80v-19.7h19.7Zm0-23.95H80v-19.7h19.7Zm.77-24.33H80.77V81.08h19.7Zm0-23.95H80.77V57.13h19.7Zm0-23.56H80.77V33.57h19.7Z"/><path class="cls-2" d="M75.74,29.71V18.93A89.51,89.51,0,0,0,56,27.65v2.06Z"/><path class="cls-3" d="M100.47,29.32V15.05a90.12,90.12,0,0,0-19.7,2.51V29.32Z"/><path class="cls-4" d="M51.41,53.66V34H46.8A90.53,90.53,0,0,0,31.71,48.84v4.82Z"/><rect class="cls-5" x="56.05" y="33.96" width="19.7" height="19.7"/><rect class="cls-6" x="80.77" y="33.57" width="19.7" height="19.7"/><path class="cls-7" d="M27.27,57.33H25.69A89.57,89.57,0,0,0,16.46,77H27.27Z"/><rect class="cls-8" x="31.71" y="57.52" width="19.7" height="19.7"/><rect class="cls-9" x="56.05" y="57.52" width="19.7" height="19.7"/><rect class="cls-10" x="80.77" y="57.13" width="19.7" height="19.7"/><path class="cls-11" d="M27.27,81.28H15.19A89.86,89.86,0,0,0,12.11,101H27.27Z"/><rect class="cls-12" x="31.71" y="81.47" width="19.7" height="19.7"/><rect class="cls-13" x="56.05" y="81.47" width="19.7" height="19.7"/><rect class="cls-14" x="80.77" y="81.08" width="19.7" height="19.7"/><path class="cls-15" d="M125,29.52V18a89.94,89.94,0,0,0-19.7-2.9V29.52Z"/><path class="cls-16" d="M149.13,29.71V28.35a89.55,89.55,0,0,0-19.7-9.05V29.71Z"/><rect class="cls-17" x="105.29" y="33.76" width="19.7" height="19.7"/><rect class="cls-18" x="129.44" y="33.96" width="19.7" height="19.7"/><path class="cls-19" d="M153.77,53.66h19.7V50.32A90.52,90.52,0,0,0,157.22,34h-3.45Z"/><rect class="cls-20" x="105.29" y="57.33" width="19.7" height="19.7"/><rect class="cls-21" x="129.44" y="57.52" width="19.7" height="19.7"/><rect class="cls-22" x="153.77" y="57.52" width="19.7" height="19.7"/><path class="cls-23" d="M187.5,76.83a89.57,89.57,0,0,0-9-19.26V76.83Z"/><rect class="cls-24" x="105.29" y="81.28" width="19.7" height="19.7"/><rect class="cls-25" x="129.44" y="81.47" width="19.7" height="19.7"/><rect class="cls-26" x="153.77" y="81.47" width="19.7" height="19.7"/><path class="cls-27" d="M178.49,100.78h13.42a89.85,89.85,0,0,0-3.12-19.7H178.49Z"/><path class="cls-28" d="M26.5,105.61H12a90.25,90.25,0,0,0,2.29,19.7H26.5Z"/><rect class="cls-29" x="30.94" y="105.8" width="19.7" height="19.7"/><rect class="cls-30" x="55.27" y="105.8" width="19.7" height="19.7"/><rect class="cls-31" x="79.99" y="105.42" width="19.7" height="19.7"/><path class="cls-32" d="M26.5,129.56H15.4a89.44,89.44,0,0,0,8.22,19.7H26.5Z"/><rect class="cls-33" x="30.94" y="129.75" width="19.7" height="19.7"/><rect class="cls-34" x="55.27" y="129.75" width="19.7" height="19.7"/><rect class="cls-35" x="79.99" y="129.36" width="19.7" height="19.7"/><path class="cls-36" d="M25.93,153.12l.57.88v-.88Z"/><path class="cls-37" d="M50.64,153.31H30.94v6.93A90.53,90.53,0,0,0,43,173h7.6Z"/><rect class="cls-38" x="55.27" y="153.31" width="19.7" height="19.7"/><rect class="cls-39" x="79.99" y="152.93" width="19.7" height="19.7"/><path class="cls-40" d="M48.32,177.26q1.15.85,2.32,1.67v-1.67Z"/><path class="cls-41" d="M55.27,177.26V182A89.54,89.54,0,0,0,75,190.89V177.26Z"/><path class="cls-42" d="M80,176.87v15.44A90,90,0,0,0,99.69,195V176.87Z"/><rect class="cls-43" x="104.52" y="105.61" width="19.7" height="19.7"/><rect class="cls-44" x="128.66" y="105.8" width="19.7" height="19.7"/><rect class="cls-45" x="153" y="105.8" width="19.7" height="19.7"/><path class="cls-46" d="M177.72,125.12h12a90.26,90.26,0,0,0,2.25-19.7H177.72Z"/><rect class="cls-47" x="104.52" y="129.56" width="19.7" height="19.7"/><rect class="cls-48" x="128.66" y="129.75" width="19.7" height="19.7"/><rect class="cls-49" x="153" y="129.75" width="19.7" height="19.7"/><path class="cls-50" d="M177.72,149.06h2.79a89.44,89.44,0,0,0,8.16-19.7h-11Z"/><rect class="cls-51" x="104.52" y="153.12" width="19.7" height="19.7"/><rect class="cls-52" x="128.66" y="153.31" width="19.7" height="19.7"/><path class="cls-53" d="M153,153.31V173h8a90.54,90.54,0,0,0,11.71-12.27v-7.43Z"/><path class="cls-54" d="M177.72,153.71l.5-.78h-.5Z"/><path class="cls-55" d="M104.52,177.07V195a90,90,0,0,0,19.7-2.73v-15.2Z"/><path class="cls-56" d="M128.66,177.26V191a89.52,89.52,0,0,0,19.7-8.83v-4.93Z"/><path class="cls-57" d="M153,179.2q1.37-.94,2.71-1.94H153Z"/></svg>