<svg id="Layer_1" data-name="Layer 1" xmlns="http://www.w3.org/2000/svg" xmlns:xlink="http://www.w3.org/1999/xlink" viewBox="0 0 300 300"><defs><style>.cls-1{fill:url(#linear-gradient);}.cls-2{fill:url(#linear-gradient-2);}.cls-3{fill:url(#linear-gradient-3);}.cls-4{fill:url(#linear-gradient-4);}.cls-5{fill:url(#linear-gradient-5);}.cls-6{fill:url(#linear-gradient-6);}.cls-7{fill:url(#linear-gradient-7);}.cls-8{fill:url(#linear-gradient-8);}.cls-9{fill:url(#linear-gradient-9);}.cls-10{fill:url(#linear-gradient-10);}.cls-11{fill:url(#linear-gradient-11);}.cls-12{fill:url(#linear-gradient-12);}.cls-13{fill:url(#linear-gradient-13);}.cls-14{fill:url(#linear-gradient-14);}.cls-15{fill:url(#linear-gradient-15);}.cls-16{fill:url(#linear-gradient-16);}.cls-17{fill:url(#linear-gradient-17);}.cls-18{fill:url(#linear-gradient-18);}.cls-19{fill:url(#linear-gradient-19);}.cls-20{fill:url(#linear-gradient-20);}.cls-21{fill:url(#linear-gradient-21);}.cls-22{fill:url(#linear-gradient-22);}.cls-23{fill:url(#linear-gradient-23);}.cls-24{fill:url(#linear-gradient-24);}.cls-25{fill:url(#linear-gradient-25);}.cls-26{fill:url(#linear-gradient-26);}.cls-27{fill:url(#linear-gradient-27);}.cls-28{fill:url(#linear-gradient-28);}.cls-29{fill:url(#linear-gradient-29);}.cls-30{fill:url(#linear-gradient-30);}.cls-31{fill:url(#linear-gradient-31);}.cls-32{fill:url(#linear-gradient-32);}.cls-33{fill:url(#linear-gradient-33);}.cls-34{fill:url(#linear-gradient-34);}.cls-35{fill:url(#linear-gradient-35);}.cls-36{fill:url(#linear-gradient-36);}.cls-37{fill:url(#linear-gradient-37);}.cls-38{fill:url(#linear-gradient-38);}.cls-39{fill:url(#linear-gradient-39);}.cls-40{fill:url(#linear-gradient-40);}.cls-41{fill:url(#linear-gradient-41);}.cls-42{fill:url(#linear-gradient-42);}.cls-43{fill:url(#linear-gradient-43);}.cls-44{fill:url(#linear-gradient-44);}.cls-45{fill:url(#linear-gradient-45);}.cls-46{fill:url(#linear-gradient-46);}.cls-47{fill:url(#linear-gradient-47);}.cls-48{fill:url(#linear-gradient-48);}.cls-49{fill:url(#linear-gradient-49);}.cls-50{fill:url(#linear-gradient-50);}.cls-51{fill:url(#linear-gradient-51);}.cls-52{fill:url(#linear-gradient-52);}.cls-53{fill:url(#linear-gradient-53);}.cls-54{fill:url(#linear-gradient-54);}.cls-55{fill:url(#linear-gradient-55);}.cls-56{fill:url(#linear-gradient-56);}.cls-57{fill:url(#linear-gradient-57);}</style><linearGradient id="linear-gradient" x1="70.71" y1="50.62" x2="231.16" y2="249.58" gradientUnits="userSpaceOnUse"><stop offset="0" stop-color="red"/><stop offset="0.16" stop-color="#ff0"/><stop offset="0.32" stop-color="#00c400"/><stop offset="0.5" stop-color="aqua"/><stop offset="0.66" stop-color="blue"/><stop offset="0.8" stop-color="#ff0085"/><stop offset="1" stop-color="red"/></linearGradient><linearGradient id="linear-gradient-2" x1="92.41" y1="33.13" x2="252.86" y2="232.08" xlink:href="#linear-gradient"/><linearGradient id="linear-gradient-3" x1="113.23" y1="16.33" x2="273.68" y2="215.29" xlink:href="#linear-gradient"/><linearGradient id="linear-gradient-4" x1="60.85" y1="58.57" x2="221.31" y2="257.53" xlink:href="#linear-gradient"/><linearGradient id="linear-gradient-5" x1="80.02" y1="43.11" x2="240.47" y2="242.07" xlink:href="#linear-gradient"/><linearGradient id="linear-gradient-6" x1="99.74" y1="27.21" x2="260.19" y2="226.17" xlink:href="#linear-gradient"/><linearGradient id="linear-gradient-7" x1="30.49" y1="83.05" x2="190.94" y2="282.01" xlink:href="#linear-gradient"/><linearGradient id="linear-gradient-8" x1="45.89" y1="70.64" x2="206.34" y2="269.6" xlink:href="#linear-gradient"/><linearGradient id="linear-gradient-9" x1="65.06" y1="55.18" x2="225.51" y2="254.14" xlink:href="#linear-gradient"/><linearGradient id="linear-gradient-10" x1="84.78" y1="39.28" x2="245.23" y2="238.24" xlink:href="#linear-gradient"/><linearGradient id="linear-gradient-11" x1="13.56" y1="96.71" x2="174.01" y2="295.66" xlink:href="#linear-gradient"/><linearGradient id="linear-gradient-12" x1="30.67" y1="82.91" x2="191.12" y2="281.87" xlink:href="#linear-gradient"/><linearGradient id="linear-gradient-13" x1="49.84" y1="67.45" x2="210.29" y2="266.41" xlink:href="#linear-gradient"/><linearGradient id="linear-gradient-14" x1="69.56" y1="51.55" x2="230.01" y2="250.51" xlink:href="#linear-gradient"/><linearGradient id="linear-gradient-15" x1="131.56" y1="1.55" x2="292.01" y2="200.51" xlink:href="#linear-gradient"/><linearGradient id="linear-gradient-16" x1="147.23" y1="-11.09" x2="307.68" y2="187.87" xlink:href="#linear-gradient"/><linearGradient id="linear-gradient-17" x1="118.94" y1="11.72" x2="279.39" y2="210.68" xlink:href="#linear-gradient"/><linearGradient id="linear-gradient-18" x1="137.84" y1="-3.51" x2="298.29" y2="195.44" xlink:href="#linear-gradient"/><linearGradient id="linear-gradient-19" x1="151.82" y1="-14.79" x2="312.27" y2="184.17" xlink:href="#linear-gradient"/><linearGradient id="linear-gradient-20" x1="103.97" y1="23.8" x2="264.42" y2="222.75" xlink:href="#linear-gradient"/><linearGradient id="linear-gradient-21" x1="122.87" y1="8.56" x2="283.32" y2="207.52" xlink:href="#linear-gradient"/><linearGradient id="linear-gradient-22" x1="142.04" y1="-6.9" x2="302.49" y2="192.06" xlink:href="#linear-gradient"/><linearGradient id="linear-gradient-23" x1="153.86" y1="-16.43" x2="314.31" y2="182.53" xlink:href="#linear-gradient"/><linearGradient id="linear-gradient-24" x1="88.76" y1="36.06" x2="249.21" y2="235.02" xlink:href="#linear-gradient"/><linearGradient id="linear-gradient-25" x1="107.66" y1="20.83" x2="268.11" y2="219.79" xlink:href="#linear-gradient"/><linearGradient id="linear-gradient-26" x1="126.82" y1="5.37" x2="287.28" y2="204.33" xlink:href="#linear-gradient"/><linearGradient id="linear-gradient-27" x1="142.84" y1="-7.55" x2="303.29" y2="191.41" xlink:href="#linear-gradient"/><linearGradient id="linear-gradient-28" x1="-1.33" y1="108.72" x2="159.12" y2="307.68" xlink:href="#linear-gradient"/><linearGradient id="linear-gradient-29" x1="14.6" y1="95.87" x2="175.05" y2="294.83" xlink:href="#linear-gradient"/><linearGradient id="linear-gradient-30" x1="33.77" y1="80.41" x2="194.22" y2="279.37" xlink:href="#linear-gradient"/><linearGradient id="linear-gradient-31" x1="53.49" y1="64.51" x2="213.94" y2="263.46" xlink:href="#linear-gradient"/><linearGradient id="linear-gradient-32" x1="-12.88" y1="118.03" x2="147.57" y2="316.99" xlink:href="#linear-gradient"/><linearGradient id="linear-gradient-33" x1="-0.61" y1="108.14" x2="159.84" y2="307.1" xlink:href="#linear-gradient"/><linearGradient id="linear-gradient-34" x1="18.56" y1="92.68" x2="179.01" y2="291.64" xlink:href="#linear-gradient"/><linearGradient id="linear-gradient-35" x1="38.28" y1="76.78" x2="198.73" y2="275.73" xlink:href="#linear-gradient"/><linearGradient id="linear-gradient-36" x1="-20.74" y1="124.37" x2="139.71" y2="323.33" xlink:href="#linear-gradient"/><linearGradient id="linear-gradient-37" x1="-11.53" y1="116.94" x2="148.92" y2="315.9" xlink:href="#linear-gradient"/><linearGradient id="linear-gradient-38" x1="3.59" y1="104.75" x2="164.04" y2="303.71" xlink:href="#linear-gradient"/><linearGradient id="linear-gradient-39" x1="23.31" y1="88.85" x2="183.76" y2="287.81" xlink:href="#linear-gradient"/><linearGradient id="linear-gradient-40" x1="-17.69" y1="121.91" x2="142.76" y2="320.87" xlink:href="#linear-gradient"/><linearGradient id="linear-gradient-41" x1="-6.86" y1="113.18" x2="153.59" y2="312.13" xlink:href="#linear-gradient"/><linearGradient id="linear-gradient-42" x1="9.45" y1="100.02" x2="169.9" y2="298.98" xlink:href="#linear-gradient"/><linearGradient id="linear-gradient-43" x1="72.69" y1="49.02" x2="233.14" y2="247.98" xlink:href="#linear-gradient"/><linearGradient id="linear-gradient-44" x1="91.59" y1="33.79" x2="252.04" y2="232.74" xlink:href="#linear-gradient"/><linearGradient id="linear-gradient-45" x1="110.76" y1="18.33" x2="271.21" y2="217.28" xlink:href="#linear-gradient"/><linearGradient id="linear-gradient-46" x1="128.34" y1="4.14" x2="288.79" y2="203.1" xlink:href="#linear-gradient"/><linearGradient id="linear-gradient-47" x1="57.48" y1="61.29" x2="217.93" y2="260.25" xlink:href="#linear-gradient"/><linearGradient id="linear-gradient-48" x1="76.37" y1="46.05" x2="236.82" y2="245.01" xlink:href="#linear-gradient"/><linearGradient id="linear-gradient-49" x1="95.54" y1="30.59" x2="255.99" y2="229.55" xlink:href="#linear-gradient"/><linearGradient id="linear-gradient-50" x1="111.82" y1="17.47" x2="272.27" y2="216.43" xlink:href="#linear-gradient"/><linearGradient id="linear-gradient-51" x1="42.51" y1="73.36" x2="202.96" y2="272.32" xlink:href="#linear-gradient"/><linearGradient id="linear-gradient-52" x1="61.4" y1="58.13" x2="221.85" y2="257.08" xlink:href="#linear-gradient"/><linearGradient id="linear-gradient-53" x1="80.57" y1="42.67" x2="241.02" y2="241.62" xlink:href="#linear-gradient"/><linearGradient id="linear-gradient-54" x1="98.74" y1="28.02" x2="259.19" y2="226.98" xlink:href="#linear-gradient"/><linearGradient id="linear-gradient-55" x1="27.86" y1="85.18" x2="188.31" y2="284.14" xlink:href="#linear-gradient"/><linearGradient id="linear-gradient-56" x1="48.08" y1="68.87" x2="208.53" y2="267.83" xlink:href="#linear-gradient"/><linearGradient id="linear-gradient-57" x1="64.31" y1="55.78" x2="224.76" y2="254.74" xlink:href="#linear-gradient"/></defs><title>Artboard 6</title><path class="cls-1" d="M216.31,88.26h25.61v25.61H216.31Zm0,31.13h25.61V145H216.31Zm-1,31.64h25.61v25.61H215.3Zm0,31.13h25.61v25.61H215.3ZM184.67,57.63h25.61V83.24H184.67Zm0,30.63h25.61v25.61H184.67Zm0,31.13h25.61V145H184.67Zm-1,31.64h25.61v25.61H183.67Zm0,31.13h25.61v25.61H183.67Zm0,30.63h25.61v25.61H183.67ZM153.28,57.38H178.9V83H153.28Zm0,30.63H178.9v25.61H153.28Zm0,31.13H178.9v25.61H153.28Zm-1,31.64h25.61V176.4H152.28Zm0,31.13h25.61v25.61H152.28Zm0,30.63h25.61v25.61H152.28Zm-70.05-4.77H56.62V182.17H82.23Zm0-31.13H56.62V151H82.23Zm1-31.64H57.62V119.4H83.23Zm0-31.13H57.62V88.26H83.23Zm30.63,124.54H88.25V212.8h25.61Zm0-30.63H88.25V182.17h25.61Zm0-31.13H88.25V151h25.61Zm1-31.64H89.26V119.4h25.61Zm0-31.13H89.26V88.26h25.61Zm0-30.63H89.26V57.63h25.61ZM146,237.91H120.39V212.3H146Zm0-30.63H120.39V181.67H146Zm0-31.13H120.39V150.53H146Zm1-31.64H121.4V118.9H147Zm0-31.13H121.4V87.76H147Zm0-30.63H121.4V57.13H147Z"/><path class="cls-2" d="M114.87,52.11v-14A116.37,116.37,0,0,0,89.26,49.42v2.68Z"/><path class="cls-3" d="M147,51.61V33.05a117.16,117.16,0,0,0-25.61,3.26V51.61Z"/><path class="cls-4" d="M83.23,83.24V57.63h-6A117.69,117.69,0,0,0,57.62,77v6.26Z"/><rect class="cls-5" x="89.26" y="57.63" width="25.61" height="25.61"/><rect class="cls-6" x="121.4" y="57.13" width="25.61" height="25.61"/><path class="cls-7" d="M51.85,88H49.79a116.45,116.45,0,0,0-12,25.61H51.85Z"/><rect class="cls-8" x="57.62" y="88.26" width="25.61" height="25.61"/><rect class="cls-9" x="89.26" y="88.26" width="25.61" height="25.61"/><rect class="cls-10" x="121.4" y="87.76" width="25.61" height="25.61"/><path class="cls-11" d="M51.85,119.15H36.14a116.83,116.83,0,0,0-4,25.61H51.85Z"/><rect class="cls-12" x="57.62" y="119.4" width="25.61" height="25.61"/><rect class="cls-13" x="89.26" y="119.4" width="25.61" height="25.61"/><rect class="cls-14" x="121.4" y="118.9" width="25.61" height="25.61"/><path class="cls-15" d="M178.9,51.86v-15a116.94,116.94,0,0,0-25.61-3.77V51.86Z"/><path class="cls-16" d="M210.28,52.11V50.33a116.43,116.43,0,0,0-25.61-11.77V52.11Z"/><rect class="cls-17" x="153.28" y="57.38" width="25.61" height="25.61"/><rect class="cls-18" x="184.67" y="57.63" width="25.61" height="25.61"/><path class="cls-19" d="M216.31,83.24h25.61V78.9A117.69,117.69,0,0,0,220.8,57.63h-4.49Z"/><rect class="cls-20" x="153.28" y="88.01" width="25.61" height="25.61"/><rect class="cls-21" x="184.67" y="88.26" width="25.61" height="25.61"/><rect class="cls-22" x="216.31" y="88.26" width="25.61" height="25.61"/><path class="cls-23" d="M260.16,113.37a116.45,116.45,0,0,0-11.71-25v25Z"/><rect class="cls-24" x="153.28" y="119.15" width="25.61" height="25.61"/><rect class="cls-25" x="184.67" y="119.4" width="25.61" height="25.61"/><rect class="cls-26" x="216.31" y="119.4" width="25.61" height="25.61"/><path class="cls-27" d="M248.45,144.51h17.44a116.81,116.81,0,0,0-4.06-25.61H248.45Z"/><path class="cls-28" d="M50.84,150.78H32a117.33,117.33,0,0,0,3,25.61H50.84Z"/><rect class="cls-29" x="56.62" y="151.04" width="25.61" height="25.61"/><rect class="cls-30" x="88.25" y="151.04" width="25.61" height="25.61"/><rect class="cls-31" x="120.39" y="150.53" width="25.61" height="25.61"/><path class="cls-32" d="M50.84,181.92H36.41A116.28,116.28,0,0,0,47.1,207.53h3.74Z"/><rect class="cls-33" x="56.62" y="182.17" width="25.61" height="25.61"/><rect class="cls-34" x="88.25" y="182.17" width="25.61" height="25.61"/><rect class="cls-35" x="120.39" y="181.67" width="25.61" height="25.61"/><path class="cls-36" d="M50.1,212.55l.74,1.15v-1.15Z"/><path class="cls-37" d="M82.23,212.8H56.62v9a117.7,117.7,0,0,0,15.72,16.6h9.89Z"/><rect class="cls-38" x="88.25" y="212.8" width="25.61" height="25.61"/><rect class="cls-39" x="120.39" y="212.3" width="25.61" height="25.61"/><path class="cls-40" d="M79.21,243.94q1.49,1.11,3,2.17v-2.17Z"/><path class="cls-41" d="M88.25,243.94V250a116.42,116.42,0,0,0,25.61,11.62V243.94Z"/><path class="cls-42" d="M120.39,243.44v20.07A117,117,0,0,0,146,267V243.44Z"/><rect class="cls-43" x="152.28" y="150.78" width="25.61" height="25.61"/><rect class="cls-44" x="183.67" y="151.04" width="25.61" height="25.61"/><rect class="cls-45" x="215.3" y="151.04" width="25.61" height="25.61"/><path class="cls-46" d="M247.44,176.14h15.65A117.35,117.35,0,0,0,266,150.53H247.44Z"/><rect class="cls-47" x="152.28" y="181.92" width="25.61" height="25.61"/><rect class="cls-48" x="183.67" y="182.17" width="25.61" height="25.61"/><rect class="cls-49" x="215.3" y="182.17" width="25.61" height="25.61"/><path class="cls-50" d="M247.44,207.28h3.63a116.28,116.28,0,0,0,10.62-25.61H247.44Z"/><rect class="cls-51" x="152.28" y="212.55" width="25.61" height="25.61"/><rect class="cls-52" x="183.67" y="212.8" width="25.61" height="25.61"/><path class="cls-53" d="M215.3,212.8v25.61h10.39a117.71,117.71,0,0,0,15.22-16V212.8Z"/><path class="cls-54" d="M247.44,213.32l.64-1h-.64Z"/><path class="cls-55" d="M152.28,243.69V267a117,117,0,0,0,25.61-3.55V243.69Z"/><path class="cls-56" d="M183.67,243.94v17.88a116.39,116.39,0,0,0,25.61-11.48v-6.4Z"/><path class="cls-57" d="M215.3,246.45q1.78-1.23,3.52-2.52H215.3Z"/></svg>