<svg id="Layer_1" data-name="Layer 1" xmlns="http://www.w3.org/2000/svg" viewBox="0 0 300 300"><defs><style>.cls-1{stroke:#000;stroke-miterlimit:10;}</style></defs><title>Artboard 5</title><path class="cls-1" d="M265.76,186.57q-.95,3-2,5.88"/><path class="cls-1" d="M269.39,126.85,91,256.6a121.32,121.32,0,0,0,18.78,8.29L271.47,147.29A122.48,122.48,0,0,0,269.39,126.85Z"/><path class="cls-1" d="M225.06,53.72l-190,138.22a121.4,121.4,0,0,0,8.13,17.5l196-142.6A122.71,122.71,0,0,0,225.06,53.72Z"/><path class="cls-1" d="M163.44,28.3,29.87,125.47a122.56,122.56,0,0,0-2.37,24c0,1.82,0,3.62.13,5.42L192.19,35.19A121.24,121.24,0,0,0,163.44,28.3Z"/><path class="cls-1" d="M245.62,224.64l-54.29,39.5A122.29,122.29,0,0,0,245.62,224.64Z"/><path class="cls-1" d="M263.72,192.44,155.25,271.36a121.59,121.59,0,0,0,32.26-5.91l60.55-44.06A121.7,121.7,0,0,0,263.72,192.44Z"/><path class="cls-1" d="M255.34,88.77,59.16,231.5a122.71,122.71,0,0,0,16,14.72L264.43,108.5A121.41,121.41,0,0,0,255.34,88.77Z"/><path class="cls-1" d="M271,160.82,122.87,268.58A122.39,122.39,0,0,0,149,271.49l116.73-84.93A121.42,121.42,0,0,0,271,160.82Z"/><path class="cls-1" d="M149.5,27.5a122,122,0,0,0-119.63,98L163.44,28.3A123.25,123.25,0,0,0,149.5,27.5Z"/></svg>