<svg id="Layer_1" data-name="Layer 1" xmlns="http://www.w3.org/2000/svg" viewBox="0 0 205 206"><defs><style>.cls-1{fill:#fff;stroke:#fff;stroke-miterlimit:10;}</style></defs><title>Artboard 7</title><path class="cls-1" d="M192.62,131.09q-.72,2.27-1.56,4.49"/><path class="cls-1" d="M195.39,85.44,59.07,184.62A92.73,92.73,0,0,0,73.42,191L197,101.06A93.62,93.62,0,0,0,195.39,85.44Z"/><path class="cls-1" d="M161.51,29.54,16.3,135.19a92.79,92.79,0,0,0,6.22,13.38l149.81-109A93.8,93.8,0,0,0,161.51,29.54Z"/><path class="cls-1" d="M114.41,10.11,12.31,84.39a93.68,93.68,0,0,0-1.81,18.36c0,1.39,0,2.77.1,4.14L136.38,15.37A92.67,92.67,0,0,0,114.41,10.11Z"/><path class="cls-1" d="M177.22,160.19l-41.5,30.19A93.47,93.47,0,0,0,177.22,160.19Z"/><path class="cls-1" d="M191.06,135.58,108.15,195.9a92.94,92.94,0,0,0,24.66-4.52l46.29-33.67A93,93,0,0,0,191.06,135.58Z"/><path class="cls-1" d="M184.65,56.33,34.7,165.43a93.79,93.79,0,0,0,12.21,11.25L191.6,71.41A92.8,92.8,0,0,0,184.65,56.33Z"/><path class="cls-1" d="M196.6,111.41,83.39,193.77a93.55,93.55,0,0,0,20,2.23l89.22-64.91A92.81,92.81,0,0,0,196.6,111.41Z"/><path class="cls-1" d="M103.75,9.5A93.28,93.28,0,0,0,12.31,84.39L114.41,10.11A94.21,94.21,0,0,0,103.75,9.5Z"/></svg>