<svg id="Layer_1" data-name="Layer 1" xmlns="http://www.w3.org/2000/svg" viewBox="0 0 205 206"><defs><style>.cls-1{fill:#fff;stroke:#ffce54;stroke-miterlimit:10;stroke-width:7px;}</style></defs><title>Artboard 24</title><path class="cls-1" d="M102.25,9.5A93.75,93.75,0,1,0,196,103.25,93.75,93.75,0,0,0,102.25,9.5ZM93.69,96m0,15.73H49.09V121l-26.15-16.7L49.09,84.82V95.57h44.5V51.4H84.35L101,25.25,120.49,51.4H109.74L110.5,95v.5l44-.83V85.44l26.15,16.7-26.15,19.44V110.83H110.38v.8l.12-1.12.14,45.73h9.23l-16.7,26.15L83.74,156.23H94.49v-44.6h-.64"/></svg>